<?xml version="1.0" encoding="UTF-8"?>
<svg id="Saboteur" xmlns="http://www.w3.org/2000/svg" xmlns:xlink="http://www.w3.org/1999/xlink" viewBox="0 0 100 100">
  <defs>
    <style>
      .cls-1 {
        fill: none;
      }

      .cls-2 {
        fill: #fff;
      }

      .cls-3 {
        fill: #000;
      }

      .cls-4 {
        clip-path: url(#clippath);
      }
    </style>
    <clipPath id="clippath">
      <circle class="cls-1" cx="50" cy="50" r="50"/>
    </clipPath>
  </defs>
  <circle class="cls-3" cx="50" cy="50" r="50"/>
  <g class="cls-4">
    <g>
      <path d="M80.69,76.32c-.92-2.83-1.51-5.76-1.76-8.73l-.08-.89c-.23-2.73-.65-5.45-1.25-8.13l-3.55-15.85c-.34-1.52-2.23-2.07-3.33-.96l-12.22,12.37c-.87.89-2.06,1.38-3.31,1.37-1.3,0-3.14-.02-5.19,0-2.05-.02-3.89,0-5.19,0-1.24,0-2.43-.48-3.31-1.37l-12.22-12.37c-1.1-1.11-2.99-.57-3.33.96l-3.55,15.85c-.6,2.68-1.02,5.39-1.25,8.13l-.08.89c-.25,2.97-.84,5.89-1.76,8.73l-7.76,23.93v5.78h76.9v-5.78l-7.76-23.93Z"/>
      <path class="cls-2" d="M43.83,82.52l-.68-5.15c-.26-1.97-1.44-3.7-3.17-4.66l-2.02-1.12c-1.62-.9-3.58-.97-5.26-.18l-5.01,2.35,1.24,5.16c.46,1.9,1.78,3.48,3.58,4.25l.94.41c2.2.95,4.66,1.09,6.95.4l3.11-.94c.21-.06.35-.28.32-.5Z"/>
      <ellipse cx="35.76" cy="77.62" rx="3.52" ry="2.76" transform="translate(-45.69 103.5) rotate(-82.89)"/>
      <path class="cls-2" d="M56.17,82.52l.68-5.15c.26-1.97,1.44-3.7,3.17-4.66l2.02-1.12c1.62-.9,3.58-.97,5.26-.18l5.01,2.35-1.24,5.16c-.46,1.9-1.78,3.48-3.58,4.25l-.94.41c-2.2.95-4.66,1.09-6.95.4l-3.11-.94c-.21-.06-.35-.28-.32-.5Z"/>
      <ellipse cx="64.24" cy="77.62" rx="2.76" ry="3.52" transform="translate(-9.12 8.55) rotate(-7.11)"/>
    </g>
  </g>
</svg>
